<?xml version="1.0" encoding="UTF-8" standalone="no"?>
<!-- Created with Inkscape (http://www.inkscape.org/) -->

<svg
   width="200"
   height="100"
   viewBox="0 0 52.916666 26.458333"
   version="1.1"
   id="svg5"
   inkscape:version="1.2.1 (9c6d41e410, 2022-07-14)"
   sodipodi:docname="caféCanelaHeader.svg"
   inkscape:export-filename="caféCanelaHeader.svg"
   inkscape:export-xdpi="95.800003"
   inkscape:export-ydpi="95.800003"
   xmlns:inkscape="http://www.inkscape.org/namespaces/inkscape"
   xmlns:sodipodi="http://sodipodi.sourceforge.net/DTD/sodipodi-0.dtd"
   xmlns="http://www.w3.org/2000/svg"
   xmlns:svg="http://www.w3.org/2000/svg">
  <sodipodi:namedview
     id="namedview7"
     pagecolor="#ffffff"
     bordercolor="#000000"
     borderopacity="0.25"
     inkscape:showpageshadow="2"
     inkscape:pageopacity="0.0"
     inkscape:pagecheckerboard="0"
     inkscape:deskcolor="#d1d1d1"
     inkscape:document-units="mm"
     showgrid="false"
     inkscape:zoom="0.93539562"
     inkscape:cx="56.660517"
     inkscape:cy="62.005849"
     inkscape:window-width="1366"
     inkscape:window-height="705"
     inkscape:window-x="-8"
     inkscape:window-y="-8"
     inkscape:window-maximized="1"
     inkscape:current-layer="layer1" />
  <defs
     id="defs2" />
  <g
     inkscape:label="Capa 1"
     inkscape:groupmode="layer"
     id="layer1">
    <g
       aria-label="Café Canela"
       id="text117"
       style="font-size:9.50397px;font-family:Pacifico;-inkscape-font-specification:Pacifico;fill:#fbbb95;stroke:#86421d;stroke-width:0.05;paint-order:stroke fill markers">
      <path
         d="m 6.7288164,17.09889 q -1.1309724,0 -1.9673218,-0.40867 Q 3.9251452,16.272045 3.4784586,15.511727 3.031772,14.75141 3.031772,13.743989 q 0,-1.397084 0.5227184,-2.480536 Q 4.0867127,10.18 4.9895899,9.5907541 5.892467,8.9920039 6.9949276,8.9920039 q 1.0264288,0 1.5586511,0.5322224 0.5322223,0.5227187 0.5322223,1.3875797 0,0.579742 -0.2090873,0.931389 -0.1995834,0.351647 -0.5797422,0.351647 -0.2661112,0 -0.4181747,-0.123552 -0.1520635,-0.123551 -0.1520635,-0.361151 0,-0.08554 0.038016,-0.313631 0.057024,-0.285119 0.057024,-0.45619 0,-0.864861 -0.9218851,-0.864861 -0.627262,0 -1.1975003,0.40867 -0.5702382,0.408671 -0.9218851,1.207004 -0.3516469,0.78883 -0.3516469,1.881787 0,1.140476 0.636766,1.767738 0.636766,0.617758 1.8817861,0.617758 0.6177581,0 1.2450201,-0.152063 0.636766,-0.161568 1.4065876,-0.484703 0.1425596,-0.05702 0.2375993,-0.05702 0.1520635,0 0.228095,0.114048 0.07603,0.114048 0.07603,0.294623 0,0.579742 -0.627262,0.855357 -0.6747819,0.294623 -1.4065876,0.437183 -0.7223017,0.133055 -1.3780757,0.133055 z"
         id="path3444" />
      <path
         d="m 10.568428,17.09889 q -0.5892458,0 -0.9408927,-0.427678 -0.3516469,-0.427679 -0.3516469,-1.121469 0,-0.760317 0.3516469,-1.435099 0.3516469,-0.684286 0.9313887,-1.092957 0.589247,-0.418174 1.24502,-0.418174 0.209088,0 0.275616,0.08554 0.07603,0.07603 0.123551,0.285119 0.199584,-0.03801 0.418175,-0.03801 0.465694,0 0.465694,0.332639 0,0.199583 -0.142559,0.950397 -0.218591,1.092956 -0.218591,1.520635 0,0.142559 0.06653,0.228095 0.07603,0.08554 0.19008,0.08554 0.180575,0 0.437182,-0.228096 0.256608,-0.237599 0.69379,-0.760317 0.114048,-0.133056 0.256607,-0.133056 0.123552,0 0.19008,0.114048 0.07603,0.114048 0.07603,0.313631 0,0.380159 -0.180576,0.589246 -0.389663,0.484703 -0.826845,0.817342 -0.437183,0.332638 -0.845854,0.332638 -0.313631,0 -0.579742,-0.209087 -0.256607,-0.218591 -0.389663,-0.589246 -0.494206,0.798333 -1.24502,0.798333 z m 0.342143,-0.959901 q 0.209088,0 0.399167,-0.247103 0.190079,-0.247103 0.275615,-0.655774 L 11.937,13.487382 q -0.399167,0.0095 -0.74131,0.304127 -0.332639,0.285119 -0.532222,0.760317 -0.199583,0.475199 -0.199583,1.007421 0,0.294623 0.114047,0.437183 0.123552,0.142559 0.332639,0.142559 z"
         id="path3446" />
      <path
         d="m 17.563342,14.390259 q 0.266111,0 0.266111,0.399167 0,0.750813 -1.178492,0.750813 -0.228096,0 -0.655774,-0.08554 0.123551,0.589246 0.199583,1.311548 0.08554,0.712797 0.08554,1.178492 0,1.026429 -0.332639,1.568155 -0.332639,0.541726 -0.874365,0.541726 -0.684286,0 -0.978909,-0.969405 -0.285119,-0.969405 -0.285119,-2.927223 0,-1.824762 0.389662,-3.697044 0.399167,-1.881786 1.083453,-3.1077982 0.69379,-1.2355161 1.520635,-1.2355161 0.446687,0 0.69379,0.3991667 0.256607,0.3991668 0.256607,1.0739487 0,2.2334329 -2.670615,4.8660329 -0.09504,0.931389 -0.09504,1.634683 0,0.978909 0.06653,2.005337 0.06653,1.035933 0.218591,1.035933 0.285119,0 0.285119,-0.988413 0,-0.741309 -0.104544,-1.435099 -0.09504,-0.69379 -0.266111,-1.463612 -0.0095,-0.123551 0.07603,-0.313631 0.09504,-0.190079 0.228095,-0.332639 0.133056,-0.142559 0.237599,-0.142559 0.19008,0 0.456191,0.01901 0.08554,0.0095 0.199583,0.0095 0.380159,0 0.845854,-0.06653 0.07603,-0.0095 0.161567,-0.01901 0.08554,-0.0095 0.171072,-0.0095 z M 16.603441,9.0585317 q -0.171072,0 -0.427679,0.5797422 -0.247103,0.5797421 -0.494206,1.5396431 -0.247104,0.950397 -0.427679,2.014842 0.760318,-0.864862 1.168988,-1.796251 0.408671,-0.940893 0.418175,-1.7582341 0,-0.5797422 -0.237599,-0.5797422 z"
         id="path3448" />
      <path
         d="m 20.509571,15.217104 q 0.123551,0 0.190079,0.114048 0.07603,0.114048 0.07603,0.313631 0,0.342143 -0.161568,0.589246 -0.266111,0.408671 -0.703293,0.636766 -0.427679,0.228095 -1.026429,0.228095 -0.912381,0 -1.416092,-0.541726 -0.50371,-0.55123 -0.50371,-1.482619 0,-0.655774 0.275615,-1.216508 0.275615,-0.570239 0.760318,-0.902878 0.494206,-0.332638 1.111964,-0.332638 0.55123,0 0.883869,0.332638 0.332639,0.323135 0.332639,0.88387 0,0.655774 -0.475198,1.130972 -0.465695,0.465695 -1.596667,0.74131 0.228095,0.437182 0.769821,0.437182 0.389663,0 0.636766,-0.180575 0.256608,-0.180575 0.589246,-0.608254 0.114048,-0.14256 0.256608,-0.14256 z M 18.95092,13.55391 q -0.351647,0 -0.598751,0.40867 -0.237599,0.408671 -0.237599,0.988413 v 0.01901 q 0.560734,-0.133055 0.883869,-0.399167 0.323135,-0.266111 0.323135,-0.617758 0,-0.180575 -0.104543,-0.285119 -0.09504,-0.114047 -0.266111,-0.114047 z m 0.247103,-1.558651 q -0.133056,0 -0.237599,-0.09504 -0.09504,-0.104544 -0.09504,-0.247103 0,-0.06653 0.04752,-0.180576 l 0.883869,-1.9768256 q 0.08554,-0.1900794 0.218591,-0.2756152 0.14256,-0.09504 0.313631,-0.09504 0.237599,0 0.418175,0.1710715 0.190079,0.1710714 0.190079,0.4276786 0,0.2661112 -0.209087,0.5322227 l -1.226012,1.577659 q -0.123552,0.161568 -0.304127,0.161568 z"
         id="path3450" />
      <path
         d="m 27.380929,17.09889 q -1.130972,0 -1.967321,-0.40867 -0.83635,-0.418175 -1.283036,-1.178493 -0.446687,-0.760317 -0.446687,-1.767738 0,-1.397084 0.522718,-2.480536 0.532223,-1.083453 1.4351,-1.6726989 0.902877,-0.5987502 2.005338,-0.5987502 1.026428,0 1.558651,0.5322224 0.532222,0.5227187 0.532222,1.3875797 0,0.579742 -0.209087,0.931389 -0.199584,0.351647 -0.579743,0.351647 -0.266111,0 -0.418174,-0.123552 -0.152064,-0.123551 -0.152064,-0.361151 0,-0.08554 0.03802,-0.313631 0.05702,-0.285119 0.05702,-0.45619 0,-0.864861 -0.921885,-0.864861 -0.627262,0 -1.1975,0.40867 -0.570239,0.408671 -0.921886,1.207004 -0.351646,0.78883 -0.351646,1.881787 0,1.140476 0.636766,1.767738 0.636766,0.617758 1.881786,0.617758 0.617758,0 1.24502,-0.152063 0.636766,-0.161568 1.406587,-0.484703 0.14256,-0.05702 0.2376,-0.05702 0.152063,0 0.228095,0.114048 0.07603,0.114048 0.07603,0.294623 0,0.579742 -0.627262,0.855357 -0.674782,0.294623 -1.406588,0.437183 -0.722302,0.133055 -1.378076,0.133055 z"
         id="path3452" />
      <path
         d="m 31.220541,17.09889 q -0.589246,0 -0.940893,-0.427678 -0.351647,-0.427679 -0.351647,-1.121469 0,-0.760317 0.351647,-1.435099 0.351647,-0.684286 0.931389,-1.092957 0.589246,-0.418174 1.24502,-0.418174 0.209088,0 0.275616,0.08554 0.07603,0.07603 0.123551,0.285119 0.199584,-0.03801 0.418175,-0.03801 0.465694,0 0.465694,0.332639 0,0.199583 -0.142559,0.950397 -0.218591,1.092956 -0.218591,1.520635 0,0.142559 0.06653,0.228095 0.07603,0.08554 0.19008,0.08554 0.180575,0 0.437182,-0.228096 0.256608,-0.237599 0.69379,-0.760317 0.114048,-0.133056 0.256607,-0.133056 0.123552,0 0.19008,0.114048 0.07603,0.114048 0.07603,0.313631 0,0.380159 -0.180576,0.589246 -0.389663,0.484703 -0.826845,0.817342 -0.437183,0.332638 -0.845854,0.332638 -0.313631,0 -0.579742,-0.209087 -0.256607,-0.218591 -0.389663,-0.589246 -0.494206,0.798333 -1.24502,0.798333 z m 0.342143,-0.959901 q 0.209088,0 0.399167,-0.247103 0.190079,-0.247103 0.275615,-0.655774 l 0.351647,-1.74873 q -0.399167,0.0095 -0.74131,0.304127 -0.332639,0.285119 -0.532222,0.760317 -0.199583,0.475199 -0.199583,1.007421 0,0.294623 0.114047,0.437183 0.123552,0.142559 0.332639,0.142559 z"
         id="path3454" />
      <path
         d="m 35.193193,17.09889 q -0.361151,0 -0.513215,-0.380158 -0.142559,-0.380159 -0.142559,-1.216509 0,-1.235516 0.351647,-2.34748 0.08554,-0.275615 0.275615,-0.399167 0.199583,-0.133055 0.55123,-0.133055 0.19008,0 0.266111,0.04752 0.07603,0.04752 0.07603,0.180576 0,0.152063 -0.142559,0.684286 -0.09504,0.380158 -0.152064,0.665278 -0.05702,0.285119 -0.09504,0.703293 0.313631,-0.817341 0.703294,-1.330555 0.389663,-0.513215 0.760318,-0.731806 0.380158,-0.218591 0.69379,-0.218591 0.617758,0 0.617758,0.617758 0,0.370654 -0.209088,1.340059 -0.180575,0.826846 -0.180575,1.092957 0,0.380159 0.275615,0.380159 0.190079,0 0.446687,-0.228096 0.266111,-0.237599 0.703293,-0.760317 0.114048,-0.133056 0.256608,-0.133056 0.123551,0 0.190079,0.114048 0.07603,0.114048 0.07603,0.313631 0,0.380159 -0.180576,0.589246 -0.40867,0.503711 -0.883869,0.826845 -0.465695,0.323135 -1.064445,0.323135 -0.484702,0 -0.731805,-0.275615 -0.247104,-0.285119 -0.247104,-0.817341 0,-0.266111 0.133056,-0.950397 0.123552,-0.59875 0.123552,-0.826846 0,-0.152063 -0.104544,-0.152063 -0.123552,0 -0.351647,0.323135 -0.218591,0.313631 -0.456191,0.836349 -0.228095,0.522719 -0.370654,1.102461 -0.104544,0.446686 -0.247104,0.608254 -0.133055,0.152063 -0.427678,0.152063 z"
         id="path3456" />
      <path
         d="m 43.471156,14.931985 q 0.123551,0 0.190079,0.114048 0.07603,0.114048 0.07603,0.313631 0,0.380159 -0.180576,0.589246 -0.351647,0.427679 -0.997917,0.78883 -0.636766,0.36115 -1.368571,0.36115 -0.997917,0 -1.549147,-0.541726 -0.551231,-0.541726 -0.551231,-1.482619 0,-0.655774 0.275615,-1.216508 0.275616,-0.570239 0.760318,-0.902878 0.494207,-0.332638 1.111965,-0.332638 0.55123,0 0.883869,0.332638 0.332639,0.323135 0.332639,0.88387 0,0.655774 -0.475199,1.130972 -0.465694,0.465695 -1.587163,0.74131 0.2376,0.437182 0.902877,0.437182 0.427679,0 0.969405,-0.294623 0.551231,-0.304127 0.950397,-0.788829 0.114048,-0.133056 0.256608,-0.133056 z M 41.076155,13.55391 q -0.351647,0 -0.59875,0.40867 -0.237599,0.408671 -0.237599,0.988413 v 0.01901 q 0.560734,-0.133055 0.883869,-0.399167 0.323135,-0.266111 0.323135,-0.617758 0,-0.180575 -0.104544,-0.285119 -0.09504,-0.114047 -0.266111,-0.114047 z"
         id="path3458" />
      <path
         d="m 46.569444,14.931985 q 0.123551,0 0.190079,0.114048 0.07603,0.114048 0.07603,0.313631 0,0.380159 -0.180576,0.589246 -0.40867,0.503711 -0.893373,0.826845 -0.475198,0.323135 -1.083452,0.323135 -0.83635,0 -1.245021,-0.760317 -0.399166,-0.760318 -0.399166,-1.967322 0,-1.159484 0.294623,-2.642104 0.304127,-1.482619 0.883869,-2.5470637 0.589246,-1.0644446 1.397084,-1.0644446 0.45619,0 0.712797,0.4276786 0.266112,0.4181747 0.266112,1.2070042 0,1.1309725 -0.627262,2.6230955 -0.627263,1.492124 -1.701211,2.955735 0.06653,0.389663 0.218591,0.560734 0.152064,0.161568 0.399167,0.161568 0.389663,0 0.684286,-0.218592 0.294623,-0.228095 0.750813,-0.769821 0.114048,-0.133056 0.256608,-0.133056 z M 45.400455,9.0585317 q -0.218591,0 -0.494206,0.7888295 -0.275615,0.7888298 -0.484703,1.9578178 -0.209087,1.168988 -0.228095,2.242937 0.674782,-1.111964 1.073949,-2.223929 0.399166,-1.121468 0.399166,-2.0433535 0,-0.7223018 -0.266111,-0.7223018 z"
         id="path3460" />
      <path
         d="m 47.063653,17.09889 q -0.541726,0 -0.883869,-0.427678 -0.332639,-0.427679 -0.332639,-1.121469 0,-0.760317 0.351647,-1.435099 0.351647,-0.684286 0.931389,-1.092957 0.589246,-0.418174 1.24502,-0.418174 0.209087,0 0.275615,0.08554 0.07603,0.07603 0.123552,0.285119 0.180575,-0.03801 0.399167,-0.03801 0.228095,0 0.351647,0.114047 0.123551,0.114048 0.123551,0.323135 0,0.218591 -0.09504,0.760318 -0.104543,0.579742 -0.161567,1.111964 -0.05702,0.522719 -0.05702,1.178493 0,0.36115 -0.152063,0.522718 -0.14256,0.152063 -0.475199,0.152063 -0.323135,0 -0.484702,-0.152063 -0.152064,-0.161568 -0.152064,-0.513214 l 0.0095,-0.152064 Q 47.785955,17.0989 47.063653,17.0989 Z m 0.370655,-0.959901 q 0.266111,0 0.484703,-0.370654 0.218591,-0.370655 0.389662,-1.321052 l 0.180576,-0.959901 q -0.389663,0.0095 -0.722302,0.304127 -0.332639,0.285119 -0.532222,0.760317 -0.199584,0.475199 -0.199584,1.007421 0,0.285119 0.104544,0.437183 0.114048,0.142559 0.294623,0.142559 z"
         id="path3462" />
    </g>
  </g>
</svg>
